<svg width="1408" height="768" viewBox="0 0 1408 768" fill="none" xmlns="http://www.w3.org/2000/svg">
<g id="Gemini_Generated_Image_2q5nub2q5nub2q5n(1) 2 [Vectorized]">
<path id="right-arm1" fill-rule="evenodd" clip-rule="evenodd" d="M495.287 400.432C491.041 393.796 486.79 387.154 481.959 381.044L482.901 389.772C485.295 392.482 487.926 396.632 490.027 399.946C490.223 400.255 490.414 400.556 490.601 400.849C499.676 415.12 510.322 428.203 520.975 441.293C522.562 443.244 524.149 445.195 525.732 447.15C527.815 449.723 530.407 451.958 533.829 452.179C534.94 451.743 535.336 451.532 536.011 450.51C547.419 433.263 559.009 416.129 571.736 399.801C582.394 397.882 598.836 391.328 602.636 379.837C603.663 376.73 600.762 373.583 597.47 373.315C589.149 372.637 582.634 377.386 576.324 382.062C576.249 381.472 576.195 380.856 576.14 380.232C575.864 377.074 575.573 373.744 572.406 372.76C568.276 374.379 566.57 382.626 565.701 386.829C565.682 386.923 565.663 387.015 565.644 387.104C564.874 390.818 565.476 393.311 566.35 396.933L566.395 397.119C560.518 407.276 539.023 438.901 530.46 445.892C526.494 440.176 521.618 434.589 516.703 428.957C511.486 422.98 506.226 416.953 501.966 410.67C499.687 407.309 497.488 403.871 495.287 400.432ZM592.546 376.94C590.686 377.401 588.654 377.905 586.962 378.775C585.833 379.355 584.33 380.521 582.692 381.792C579.463 384.298 575.709 387.211 573.264 386.841C572.139 385.324 571.954 383.547 571.757 381.643C571.715 381.246 571.674 380.843 571.622 380.436L570.69 380.506C568.722 383.475 568.809 389.321 568.868 393.341C568.87 393.435 568.871 393.529 568.873 393.621C568.877 393.897 568.88 394.164 568.883 394.42L568.976 394.437C571.402 394.877 573.929 395.336 576.374 394.864C582.29 393.723 598.442 384.784 598.253 377.861C596.741 376.378 595.167 376.575 593.116 376.832C593.027 376.843 592.937 376.855 592.846 376.866C592.746 376.891 592.646 376.915 592.546 376.94Z" fill="black"><animateTransform attributeName="transform" type="rotate" values="-10 482 381;-40 482 381;-10 482 381" dur="2.4s" begin="0s" repeatCount="indefinite" calcMode="spline" keySplines="0.45 0.05 0.55 0.95;0.45 0.05 0.55 0.95"/></path>
<path id="body1" fill-rule="evenodd" clip-rule="evenodd" d="M441.812 238.764C459.852 235.789 481.277 241.736 494.982 252.562C523.416 275.024 532.356 328.582 509.124 357.825C499.908 369.426 495.372 372.355 484.916 379.104C483.975 379.711 482.987 380.349 481.944 381.027L482.886 389.755C485.396 435.273 489.444 482.237 498.293 527.053C498.893 530.091 498.35 531.989 496.801 534.644L495.648 534.89C491.468 531.299 488.607 531.553 483.628 531.995C482.378 532.106 480.994 532.229 479.421 532.306C483.012 550.207 486.775 568.061 490.701 585.888C493.273 597.567 495.036 609.934 496.801 622.31C498.859 636.747 500.919 651.197 504.267 664.586C515.142 661.071 524.897 658.55 536.148 663.913C537.677 664.643 539.751 666.008 540.336 667.653C538.891 675.161 512.1 673.823 503.219 673.38C502.89 673.363 502.587 673.348 502.31 673.335C502.158 673.327 502.015 673.321 501.88 673.314C501.795 673.216 501.706 673.113 501.613 673.006C500.633 671.878 499.265 670.302 499.152 668.992C498.534 661.772 497.622 654.733 496.554 647.579C493.364 627.376 490.025 607.198 486.535 587.045C485.045 578.789 482.886 569.702 480.752 560.721C478.414 550.881 476.106 541.168 474.74 532.81C459.709 533.269 439.321 535.277 424.191 536.908C424.01 542.393 422.806 547.988 421.611 553.543C420.945 556.64 420.281 559.724 419.799 562.77C417.062 580.067 413.518 597.158 409.448 614.189C407.002 624.427 404.005 634.65 401.02 644.832C399.024 651.64 397.034 658.431 395.216 665.196C395.81 665.633 396.629 666.213 397.609 666.906C405.177 672.258 422.318 684.378 418.789 690.247C411.159 693.823 389.315 680.906 385.929 673.749C386.742 673.116 387.395 672.756 387.915 672.469C389.276 671.717 389.729 671.467 389.779 668.154C389.858 662.981 391.253 659.416 392.845 655.351C393.567 653.505 394.33 651.556 395.029 649.306C398.002 639.83 400.76 630.289 403.299 620.687C410.092 593.957 415.555 563.51 420.352 536.077C419.875 536.14 419.38 536.212 418.871 536.287C415.327 536.807 411.156 537.42 408.424 535.373L408.019 533.788C409.653 532.494 412.347 532.458 415.042 532.422C417.673 532.386 420.305 532.351 421.948 531.144C426.948 533.19 453.232 530.55 459.126 529.235C463.113 529.261 489.821 527.463 492.42 526.527C492.457 521.348 490.769 512.182 489.596 505.814C489.429 504.909 489.273 504.06 489.134 503.288C489.37 494.429 487.515 488.736 485.569 482.761C484.389 479.137 483.174 475.41 482.373 470.81L482.278 470.247C481.878 467.928 483.039 465.87 484.231 463.756C484.432 463.398 484.637 463.035 484.833 462.673C484.008 453.526 483.044 444.392 481.944 435.274C481.135 431.508 480.695 422.922 480.261 414.448C479.92 407.786 479.582 401.193 479.071 397.062C479.223 394.027 478.606 388.571 478.148 384.518C478.05 383.646 477.959 382.838 477.884 382.134C463.893 387.325 448.073 387.225 433.491 384.623C433.302 387.657 432.681 391.127 432.108 394.33C431.974 395.08 431.842 395.816 431.72 396.527C431.562 397.227 431.399 397.937 431.233 398.655C430.461 402.012 429.651 405.527 429.245 408.838C429.018 409.902 428.755 411.229 428.471 412.66C427.775 416.165 426.956 420.291 426.258 422.68C426.016 424.35 425.714 426.273 425.391 428.331C424.259 435.543 422.867 444.416 422.863 449.865C422.552 454.569 421.314 459.36 420.33 463.168C419.629 465.88 419.057 468.094 419.041 469.422C416.989 479.457 415.435 489.588 414.386 499.777C414.288 500.774 414.165 502.673 414.012 505.025C413.511 512.766 412.691 525.421 411.372 527.013L409.929 527.068C409.874 527.002 409.817 526.937 409.759 526.871C409.649 526.745 409.538 526.618 409.438 526.483C404.529 519.91 424.828 406.304 428.391 389.453L428.686 383.448C398.973 371.943 386.648 366.439 379.558 332.617C373.559 303.998 377.389 282.011 398.784 260.986C409.102 250.847 419.354 245.61 433.684 242.882C435.985 240.334 438.62 239.55 441.812 238.764ZM443.834 241.605C448.324 242.142 452.459 242.636 456.253 245.495C455.327 246.451 452.102 245.705 448.921 244.97C446.858 244.493 444.814 244.021 443.428 244.02C442.999 244.083 442.51 244.151 441.984 244.224L441.878 244.239C439.593 244.556 436.658 244.964 434.992 245.455C381.479 257.947 367.232 314.37 393.714 358.174C400.793 369.884 426.115 379.624 439.537 381.571C457.479 384.173 476.984 381.844 491.722 370.659C506.527 359.6 516.223 343.017 518.602 324.69C520.967 306.796 513.818 278.482 502.224 263.892C492.97 252.247 477.874 245.895 463.754 241.879C462.563 241.54 458.807 241.317 455.316 241.109C452.98 240.97 450.763 240.838 449.509 240.683L443.297 241.541L443.834 241.605Z" fill="black"/>
<path id="Vector" d="M496.5 329.451C498.808 329.044 500.16 328.716 501.157 330.951C495.55 339.538 490.887 350.323 485.921 359.364C484.858 361.299 484.431 362.351 482.661 362.792C480.78 361.504 479.394 358.258 478.292 356.126C473.559 349.54 470.427 344.398 465.216 337.735C472.334 335.091 488.851 331.349 496.5 329.451ZM471.257 339.873C474.446 344.103 477.377 347.995 480.311 352.405C481.392 354.018 481.516 354.825 483.075 355.425C485.806 352.652 492.999 338.456 493.192 334.654C492.29 334.234 492.26 334.099 491.298 334.215C485.266 335.811 476.941 337.768 471.257 339.873Z" fill="black"/>
<path id="Vector_2" d="M462.119 289.669C470.656 291.721 470.581 305.035 466.362 310.943C457.548 308.528 458.346 296.06 462.119 289.669Z" fill="black"/>
<path id="Vector_3" d="M500.466 286.943C508.749 288.411 508.429 299.869 504.035 305.408C496.043 303.934 496.624 292.547 500.466 286.943Z" fill="black"/>
<path id="right-arm2" fill-rule="evenodd" clip-rule="evenodd" d="M1013.15 471.819C1009.44 448.724 992.509 398.298 978.746 380.616L982.197 393.312C997.377 426.824 1009.28 460.213 1012.78 497.057C1013.07 500.109 1013.52 503.912 1014.11 506.907L1014.01 507.122C1011.63 512.482 1003.64 530.403 1009.79 533.611C1010.8 533.261 1011.81 532.905 1012.83 532.543C1012.85 532.788 1012.88 533.04 1012.91 533.299C1013.46 538.517 1014.27 546.259 1020.48 546.789C1029.02 543.329 1028.05 526.07 1025.5 519.186C1024.76 517.197 1023.57 515.143 1022.37 513.071C1021.08 510.841 1019.78 508.593 1019.02 506.386C1018.46 503.111 1017.88 499.727 1017.28 496.299C1015.87 488.089 1014.4 479.627 1013.15 471.819ZM1018.76 543.006C1026.91 539.965 1024.95 518.406 1014.78 513.91C1014.71 514.088 1014.65 514.273 1014.58 514.465C1014.54 514.581 1014.5 514.698 1014.45 514.818C1013.18 518.345 1011.2 523.855 1012.05 526.95C1013.69 527.521 1014.45 527.112 1015.01 526.814C1015.57 526.512 1015.92 526.324 1016.76 527.377C1016.92 529.324 1016.96 530.987 1016.98 532.525C1017.05 536.051 1017.1 538.915 1018.76 543.006Z" fill="black"><animateTransform attributeName="transform" type="rotate" values="10 1013 381;20 1013 381;10 1013 381" dur="2.4s" begin="0.5s" repeatCount="indefinite" calcMode="spline" keySplines="0.45 0.05 0.55 0.95;0.45 0.05 0.55 0.95"/></path>
<path id="left-arm2" fill-rule="evenodd" clip-rule="evenodd" d="M925.176 389.438C923.937 393.001 922.618 396.751 921.255 400.624C914.82 418.914 907.427 439.929 903.086 456.774C900.302 467.938 897.793 479.169 895.565 490.458C895.361 491.488 895.091 492.945 894.775 494.646C893.509 501.474 891.511 512.251 890.086 515.291C889.089 515.132 888.877 514.003 888.632 512.697C888.386 511.383 888.106 509.889 886.958 509.023C883.142 512.212 880.674 531.71 884.73 535.602L886.009 535.418C889.776 530.729 892.739 516.014 893.427 509.79L894.183 510.066C896.06 513.372 897.621 523.39 896.734 527.071C892.718 528.808 892.124 530.67 891.329 533.16C890.828 534.729 890.248 536.546 888.683 538.739C886.05 540.252 882.874 539.969 881.155 537.392C876.164 529.918 880.069 510.864 885.424 504.258C885.745 504.092 886.048 503.942 886.333 503.801C888.403 502.777 889.574 502.198 890.251 498.979C896.61 468.609 903.616 438.473 914.416 409.339C915.442 406.573 916.232 404.006 916.975 401.589C919.156 394.5 920.938 388.706 927.121 382.986L925.176 389.438Z" fill="black"><animateTransform attributeName="transform" type="rotate" values="-10 927 383;-20 927 383;-10 927 383" dur="2.56s" begin="0.2s" repeatCount="indefinite" calcMode="spline" keySplines="0.45 0.05 0.55 0.95;0.45 0.05 0.55 0.95"/></path>
<g id="body2">
<path fill-rule="evenodd" clip-rule="evenodd" d="M983.228 666.738C981.56 669.48 974.716 672.33 970.883 673.926C970.468 674.099 970.088 674.257 969.753 674.399C968.313 674.54 967.459 674.492 966.108 674.415L965.936 674.406L965.718 674.393L964.975 673.464C966.9 669.264 975.026 667.16 979.289 666.401C979.782 666.351 980.187 666.286 980.54 666.23C981.679 666.049 982.247 665.959 983.228 666.738ZM917.318 663.661L908.112 666.577L908.075 666.587C905.238 667.301 899.709 668.694 897.676 666.235C898.515 664.687 900.066 664.041 901.754 663.34L901.888 663.284C902.202 663.153 902.52 663.019 902.839 662.877C907.61 662.329 912.608 662.894 917.318 663.661Z" fill="black"/>
<path fill-rule="evenodd" clip-rule="evenodd" d="M944.013 238.194C952.641 236.756 967.223 239.516 975.329 242.537C994.022 249.711 1009.66 261.893 1017.55 280.666C1036.3 325.331 1023.43 360.866 978.746 380.617L982.197 393.312C986.893 424.851 990.99 456.475 994.496 488.169C995.748 500.346 997.136 514.381 996.999 526.71C996.973 528.918 996.54 529.277 995.371 530.247C995.279 530.323 995.182 530.403 995.081 530.488L994.001 530.3L993.933 530.202C993.398 529.438 991.325 526.476 990.591 526.803C986.865 528.467 984.088 529.304 979.956 529.594C979.785 534.794 980.144 540.445 980.481 545.75L980.482 545.777C980.511 546.228 980.54 546.676 980.568 547.122C981.19 553.701 981.252 560.352 981.314 567.003C981.387 574.825 981.46 582.648 982.444 590.354C983.043 595.047 983.612 599.821 984.187 604.638C986.362 622.856 988.609 641.689 992.736 659.027C994.159 665.013 994.077 665.098 989.182 669.013C983.352 673.67 964.178 682.964 958.801 675.623C958.733 673.753 959.434 672.853 960.589 671.391C966.879 663.441 977.845 662.3 987.291 661.42C987.264 658.765 985.16 642.522 984.651 639.892C982.961 631.15 981.723 619.799 980.597 609.476C979.951 603.551 979.341 597.965 978.704 593.404C978.04 588.632 977.557 575.594 977.076 562.623C976.522 547.671 975.971 532.808 975.15 530.802C975.308 530.906 936.279 530.241 931.879 529.908C931.488 541.452 930.166 553.57 928.853 565.611C927.974 573.667 927.099 581.69 926.509 589.482C924.908 613.246 924.681 637.083 925.815 660.874L925.821 661.027L925.826 661.152C925.9 662.938 925.964 664.476 924.853 665.695C918.184 668.243 896.823 674.831 891.268 669.422C891.039 668.871 890.86 668.483 890.725 668.189C890.526 667.757 890.423 667.531 890.392 667.296C890.359 667.04 890.413 666.772 890.527 666.211C890.571 665.994 890.624 665.732 890.684 665.409C892.038 663.401 894.568 662.107 896.823 661.381C906.4 658.288 911.027 657.653 919.951 661.711C920.067 656.227 920.277 650.747 920.487 645.267C920.785 637.461 921.084 629.654 921.113 621.838C921.133 616.896 921.188 611.965 921.807 607.055C921.882 591.98 924.302 569.313 926.39 549.749C927.165 542.488 927.894 535.654 928.441 529.794C926.894 529.52 925.13 529.395 923.335 529.267C919.514 528.995 915.554 528.714 913.248 526.968C913.628 518.397 914.872 509.209 916.089 500.223C916.673 495.908 917.25 491.64 917.723 487.509C918.179 483.529 918.654 479.483 919.135 475.387C922.434 447.328 926.004 416.959 925.176 389.438L927.121 382.986C902.461 374.62 881.265 358.091 878.109 330.305C874.108 295.071 897.518 248.217 936.031 244.17C940.342 243.717 950.84 242.7 951.424 248.662L950.304 249.546C948.138 248.756 945.924 248.094 943.683 247.561C936.368 245.823 921.738 250.913 915.647 254.814C886.841 273.266 870.492 322.494 890.134 352.527C901.106 369.293 916.884 376.519 935.77 380.931C956.918 385.938 973.122 381.069 991.43 369.851C1027.08 348.012 1028.76 306.603 1009.24 272.884C998.553 254.416 975.061 243.448 954.58 241.481C952.256 241.257 949.517 241.533 946.809 241.805C943.62 242.126 940.476 242.442 938.108 241.934L938.362 240.957C940.272 239.305 941.16 239.042 943.258 238.42C943.494 238.35 943.744 238.275 944.013 238.194ZM948.113 526.182C950.223 526.164 952.284 526.146 954.216 526.187C965.236 526.418 976.635 525.15 987.553 523.768C988.397 523.661 989.956 525.275 990.574 525.915L990.633 525.976L991.485 525.577C994.895 509.599 979.853 402.02 975.865 383.028L975.294 382.355C957.969 388.674 947.444 387.504 929.301 383.78C930.136 390.32 929.665 397.178 929.199 403.951C929.006 406.77 928.813 409.574 928.716 412.333C928.183 427.677 926.63 442.765 924.944 457.868C924.703 460.026 924.46 462.184 924.216 464.343C923.372 471.823 922.526 479.317 921.786 486.857C921.411 490.695 920.806 495.096 920.18 499.659C919.029 508.041 917.803 516.966 917.785 523.935C918.954 524.065 920.637 524.215 922.487 524.378L922.859 524.411C926.639 524.744 931.005 525.129 933.089 525.502C937.626 526.274 943.013 526.227 948.113 526.182ZM970.883 673.926C974.716 672.33 981.56 669.48 983.228 666.738C982.247 665.959 981.679 666.049 980.54 666.23C980.187 666.286 979.782 666.351 979.289 666.401C975.026 667.16 966.9 669.264 964.975 673.464L965.718 674.393L965.936 674.406L966.108 674.415C967.459 674.492 968.313 674.54 969.753 674.399C970.088 674.257 970.468 674.099 970.883 673.926ZM908.112 666.577L917.318 663.661C912.608 662.894 907.61 662.329 902.839 662.877C902.52 663.019 902.202 663.153 901.888 663.284L901.754 663.34C900.066 664.041 898.515 664.687 897.676 666.235C899.709 668.694 905.238 667.301 908.075 666.587L908.112 666.577Z" fill="black"/>
</g>
<path id="Vector_4" d="M636.865 97.6054C649.943 92.8496 664.649 88.2162 678.543 87.1725C714.031 84.5075 753.211 80.7589 786.218 96.7446C792.873 99.9651 798.552 103.69 804.602 107.81C850.568 135.988 865.796 198.366 844.078 246.451C820.16 293.161 761.929 319.125 711.831 324.102C706.434 324.638 701.243 325.556 695.963 326.165C665.175 329.715 633.167 322.509 604.94 310.337C603.309 309.634 601.862 308.762 601.166 307.056L601.415 305.569C604.102 304.976 612.857 309.334 616.156 310.643C680.404 336.143 766.349 321.299 817.465 274.786C851.812 243.531 858.715 199.393 841.356 157.206C831.696 133.734 817.733 119.97 796.159 106.651C756.821 81.32 702.116 87.0893 657.87 93.6664C655.023 94.0893 643.915 98.8582 640.026 100.16L636.865 97.6054Z" fill="black"/>
<path id="Vector_5" d="M650.948 156.138C654.788 151.663 668.766 133.724 672.692 132.809C673.791 135.372 665.488 141.345 663.992 146.231C661.263 155.142 657.579 164.004 655.262 173.096L667.779 166.242C652.083 159.344 670.916 150.586 674.729 151.221L674.474 152.436C671.875 155.403 666.812 158.307 663.364 160.52C668.63 163.086 671.613 165.493 677.158 162.584L677.387 163.648C677.526 164.657 677.608 165.643 677.7 166.655C675.341 167.896 672.928 166.818 671.496 167.1C664.051 168.572 616.041 198.449 616.655 203.999C619.699 202.152 622.11 200.607 624.699 203.593C625.283 207.539 618.828 221.423 617 226.925C625.985 220.025 626.484 215.748 631.575 206.008C632.507 204.224 633.961 201.505 635.942 200.879L636.334 201.547C636.426 203.81 631.299 216.611 630.039 221.086C630.221 220.802 630.407 220.52 630.595 220.239C632.811 216.974 634.78 214.107 638.966 213.34C639.378 216.046 633.602 221.755 634.859 224.695C638.56 224.029 647.993 214.614 652.464 211.306C652.185 206.915 651.538 203.122 653.247 199.071L654.118 199.203C655.48 202.311 655.194 206.296 655.218 209.76C658.405 208.58 665.891 205.511 668.957 207.633C666.634 209.591 658.794 211.445 655.462 212.376C655.892 217.552 658.924 223.902 658.571 225.304L656.73 225.666C653.471 223.264 653.194 218.249 652.434 214.121C647.111 218.469 643.597 223.544 638.076 227.453C632.828 231.169 624.158 227.182 627.627 220.12L627.349 219.43C626.094 221.061 621.007 228.01 619.724 228.113C617.233 228.315 611.739 227.019 608.253 228.077C606.121 233.342 611.112 235.623 611.013 240.096L609.885 240.814L608.232 240.405C604.185 236.301 604.277 226.791 604.256 221.384C602.064 224.528 594.871 235.396 590.701 233.337C589.077 229.323 592.815 219.843 594.259 215.369C590.564 216.697 579.699 222.466 577.182 222.448C577.261 222.153 588.314 206.52 589.451 204.847L589.951 205.517L582.169 218.032C586.833 215.218 589.979 214.096 595.056 212.572C597.017 208.271 598.999 199.311 602.185 196.684C603.132 199.168 598.66 206.996 600.161 212.044C601.846 213.721 600.972 213.281 603.575 213.539C611.658 208.39 626.491 185.373 632.909 177.879C641.113 168.299 648.959 159.758 651.64 147.483C652.224 144.809 655.154 143.192 654.363 139.713C651.6 139.073 650.272 140.781 646.959 141.207C649.099 138.048 653.161 135.944 656.932 136.737L657.689 137.992C657.961 143.334 653.408 150.637 650.948 156.138ZM624.867 193.367C633.733 187.044 642.737 180.918 651.872 174.993C652.346 168.205 655.227 164.217 655.491 159.983C654.774 159.294 654.631 159.052 653.746 158.618C652.8 158.851 650.35 159.503 649.762 160.104C642.562 167.466 629.534 183.531 624.59 191.882C624.319 192.336 624.06 192.798 623.814 193.266L624.867 193.367ZM606.697 218.388L608.085 225.698L608.442 225.935C610.246 225.353 613.276 224.486 614.936 223.828C616.464 219.652 621.03 208.696 621.717 205.231L620.828 204.142C613.223 208.738 611.099 210.341 606.697 218.388ZM596.273 228.13C598.943 225.164 601.129 223.042 601.679 219.054C600.916 216.419 600.072 215.563 597.265 214.673C596.134 218.023 592.244 227.681 593.44 230.282C594.964 229.478 595.048 229.369 596.273 228.13Z" fill="black"/>
<path id="Vector_6" d="M739.997 126.895L741.18 127.819C741.469 129.824 738.561 136.085 737.612 138.626C743.071 137.922 745.243 137.132 750.468 138.837L750.537 139.502C747.361 140.781 741.036 141.324 737.412 141.78C735.982 143.472 735.329 146.891 734.718 149.171C740.41 147.261 747.23 143.467 752.214 148.949C754.717 151.695 755.824 146.238 759 146.086C761.942 149.63 761.819 166.071 761.915 170.846C767.002 157.666 768.872 144.169 775.321 130.524L776.469 130.366L776.497 128.75L775.926 129.434L776.662 129.625C775.211 140.408 767.415 157.104 767.099 166.382C768.439 167.238 768.446 167.153 769.154 168.53C767.656 178.542 719.008 231.581 724.604 244.794C732.758 250.311 760.024 223.773 766.109 218.28C759.777 216.988 749.402 216.249 746.35 209.683C747.024 203.187 760.148 202.589 765.187 202.238C764.287 185.864 778.326 172.78 782.21 195.43C786.067 191.729 795.513 180.994 800.662 182.27C802.966 187.053 792.667 202.679 790.213 208.152C792.632 210.71 794.722 212.489 794.929 216.073C792.619 220.249 785.283 217.996 782.499 224.63C783.695 233.499 792.571 225.504 796.558 222.855C793.361 226.805 788.356 232.934 782.767 231.628C779.419 228.372 781.667 223.915 781.268 219.956C781.213 219.442 777.851 214.564 777.198 213.316C777.267 209.02 779.323 208.012 783.276 206.735L786.466 206.656C790.446 204.111 797.596 188.24 799.652 183.42C792.818 186.746 787.848 191.784 782.327 196.965C781.887 200.282 781.275 204.573 779.247 207.261C776.105 211.441 773.871 208.777 770.227 209.293C769.869 211.184 769.938 211.448 770.399 213.327C771.691 212.48 771.856 212.348 773.307 211.873C773.101 214.286 771.499 213.244 769.835 216.291C770.048 218.435 770.22 218.759 769.402 220.657C768.206 220.244 766.789 219.44 765.566 219.985C763.661 220.835 761.007 224.181 759.433 225.731C751.492 233.565 741.634 243.836 730.826 247.451C728.798 248.13 725.869 248.617 723.924 247.531C722.645 246.818 722.102 245.828 721.758 244.408C719.104 233.58 755.645 186.187 762.74 173.799C749.478 178.923 713.886 214.717 710.38 214.941C712.601 210.082 753.459 177.304 759.784 172.676C758.794 167.65 758.34 155.109 758.024 149.454L752.228 152.42C749.794 152.179 752.194 151.357 749.045 149.115C744.624 148.533 740.046 149.756 736.244 152.068C734.016 153.427 732.634 157.65 734.133 159.684C736.931 158.341 740.403 154.156 742.644 156.695C741.592 159.456 739.159 158.898 738.629 159.727C737.901 160.874 736.154 163.276 735.164 164.567C733.033 165.471 733.611 165.629 732.016 165.004C729.981 161.755 731.617 157.821 729.96 153.991L728.853 153.809C726.942 155.254 726.674 155.452 725.539 157.548C726.364 160.683 728.021 159.133 729.266 161.851L728.468 161.91C726.041 160.777 724.934 160.482 723.401 158.288C722.562 153.287 728.076 151.673 731.885 150.061L733.37 141.979C729.747 142.493 723.958 143.596 720.651 142.242C723.154 139.522 730.483 139.492 734.271 139.198C735.721 135.411 737.481 129.859 739.997 126.895ZM771.794 203.795C774.207 201.835 777.308 199.458 779.515 197.362C778.91 192.074 779.323 187.894 773.458 185.909C769.168 190.286 765.394 200.253 769.711 205.187C770.901 204.762 771.031 204.831 771.794 203.795ZM760.327 214.383C763.503 214.936 763.393 215.424 765.964 214.41C768.728 208.824 764.356 204.033 758.395 204.93C755.865 205.795 752.819 206.507 751.169 208.516C750.502 212.715 757.082 213.539 760.327 214.383Z" fill="black"/>
<path id="Vector_7" d="M696.602 155.484C697.276 151.371 698.947 140.086 702.006 137.784C703.443 140.88 700.624 149.584 699.696 153.05C703.711 153.409 710.284 153.07 712.257 155.201C716.004 166.363 696.321 187.954 692.388 197.734L692.656 198.03C692.931 198.33 694.368 199.968 694.375 200.316C694.499 206.056 693.928 211.883 693.942 217.662C696.403 214.874 700.473 209.335 702.371 207.346L704.997 208.14C702.267 211.85 697.771 219.849 693.914 221.116C687.933 219.161 693.261 203.608 690.456 201.042C687.497 202.665 684.327 208.919 682.595 212.077C682.528 216.282 682.893 221.858 681.792 225.628L680.723 226.28C678.49 225.173 677.792 222.869 676.606 220.505C669.479 234.044 665.853 238.411 661.244 253.668C676.274 245.829 688.552 233.957 701.167 222.579L702.261 223.308C695.303 230.509 670.642 254.675 662.037 254.031C655.297 249.185 672.766 223.857 676.032 218.387C674.531 214.07 673.936 211.486 672.983 207.08L675.246 205.573C675.74 208.463 677.205 212.935 678.068 215.866C680.131 211.313 683.354 206.843 686.172 202.635C681.632 202.918 680.225 203.06 675.739 204.223L675.869 201.129C678.153 201.239 686.899 198.955 689.487 198.33C693.949 192.068 712.113 164.112 709.603 157.947C705.801 157.804 703.381 157.823 699.662 156.711L698.954 156.493C698.232 160.584 698.947 166.876 697.654 168.609C693.639 168.169 695.688 160.527 696.142 157.539C692.065 158.288 682.357 162.122 677.387 163.648L677.158 162.584C683.339 159.468 689.865 157.085 696.602 155.484Z" fill="black"/>
<path id="Vector_8" d="M539.866 219.799L543.035 219.606C548.092 247.113 555.87 258.012 573.097 278.866C574.41 278.24 574.628 278.044 575.775 277.128C582.077 283.241 553.004 318.731 547.732 323.888C562.079 318.189 574.874 313.292 587.567 304.291C590.129 302.474 595.643 298.349 598.442 299.004L599.005 300.588C596.135 306.586 544.507 332.692 537.474 329.51L537.252 328.828C540.809 324.408 545.437 321.462 548.973 317.465C557.864 307.413 567.227 292.882 573.245 280.75C557.612 271.505 546.035 247.475 541.672 230.513C540.748 227.003 540.143 223.417 539.866 219.799Z" fill="black"/>
<path id="Vector_9" d="M719.579 258.89L720.521 259.717C721.573 262.167 721.064 266.868 720.954 269.721C724.508 268.781 727.114 267.762 730.572 268.924C735.818 273.711 730.235 280.673 727.093 285.31C730.682 281.485 736.409 276.514 740.472 273.024L741.084 273.257C737.639 277.538 722.281 295.584 717.585 295.479C714.333 290.649 719.579 277.676 716.746 274.38L714.691 274.838C713.295 277.244 711.432 281.394 708.943 282.252C706.386 281.085 706.42 280.174 704.557 277.456C700.556 277.816 689.363 290.104 682.16 287.121C679.816 286.15 677.566 281.978 678.528 279.829C680.412 281.367 680.952 282.045 682.445 283.857C691.219 287.257 697.221 275.922 704.983 274.615C707.52 275.285 706.791 275.125 708.702 277.595L709.686 277.263C712.374 273.975 717.929 263.576 719.359 259.515L719.579 258.89ZM722.384 291.216C722.673 289.927 722.961 288.727 723.209 287.426C724.102 282.789 729.905 277.218 729.644 272.401C728.344 270.867 729.053 271.243 727.128 271.083C724.811 271.497 722.329 271.622 720.637 273.081C719.991 276.527 719.125 288.487 719.517 291.931C721.057 291.831 720.995 291.865 722.384 291.216Z" fill="black"/>
<path id="Vector_10" d="M643.464 243.763C643.915 244.183 644.446 244.676 645.056 245.244C645.197 248.48 646.04 253.269 646.616 256.315C659.964 248.297 655.944 254.932 659.779 259.509C666.176 259.326 673.836 246.093 683.31 258.768C684.996 261.024 701.394 253.313 705.987 252.53L706.434 253.016C703.574 255.119 687.871 262.583 684.635 262.901C679.489 261.933 678.904 255.083 672.451 256.674C665.869 258.297 663.063 263.999 655.959 264.032C653.36 262.053 657.21 259.913 655.552 256.24L654.057 255.812C651.269 256.222 649.129 257.727 646.682 259.153C647.165 263.017 647.402 269.272 649.941 271.708L650.131 271.895L649.421 272.005C649.591 273.95 649.13 275.101 649.428 277.4C651.718 278.322 656.152 276.508 658.444 277.666C654.336 279.626 650.596 280.519 649.652 285.249C651.451 285.884 659.57 285.371 663.257 285.913L663.097 286.525C657.882 288.563 656.089 288.787 650.565 289.571C650.496 294.563 652.126 296.013 650.863 300.045L649.656 299.583L649.702 299.77C647.798 296.03 647.86 295.066 647.76 290.807C645.03 291.64 642.189 292.758 639.391 292.403C642.125 289.925 645.541 288.606 647.238 285.679C647.869 279.169 645.168 283.746 641.587 282.268C642.634 280.052 644.191 279.889 646.829 278.521L644.718 260.359C641.69 262.13 636.76 265.33 633.282 263.438C633.907 261.193 634.974 260.745 636.835 258.898C637.194 259.435 637.547 259.975 637.896 260.517C640.122 260.462 642.042 258.864 644.029 257.598C643.698 250.816 640.947 248.679 643.464 243.763Z" fill="black"/>
<path id="Vector_11" d="M628.19 141.806C635.231 142.883 636.003 145.415 638.736 151.424C638.272 155.152 637.942 161.349 635.134 163.82C633.036 164.743 631.04 163.922 628.669 163.372C624.665 164.078 625.911 168.004 620.923 168.211C613.887 164.312 618.465 155.696 624.33 153.579C629.651 151.658 630.393 159.145 633.082 160.725C640.802 154.12 631.952 133.136 616.246 152.158C615.72 153.137 615.266 154.154 614.89 155.201C613.242 159.688 610.542 168.51 613.127 172.72C618.546 181.548 631.668 172.589 637.027 169.467C605.835 203.319 599.07 145.509 628.19 141.806Z" fill="black"/>
<path id="Vector_12" d="M932.085 341.07C940.562 340.799 957.268 351.488 952.208 357.443C949.183 358.017 947.561 356.703 944.433 355.301C936.327 352.565 934.863 353.746 926.647 353.948C923.526 354.025 922.556 353.976 920.528 352.009C920.315 345.745 927.046 342.676 932.085 341.07ZM943.621 351.104L945.175 351.182L945.237 350.099C940.933 345.804 935.969 344.468 930.057 345.206C928.373 346.89 927.63 346.982 927.582 348.87C930.683 350.605 937.461 349.064 943.621 351.104Z" fill="black"/>
<path id="Vector_13" d="M564.096 141.015C577.849 121.418 614.864 105.464 636.865 97.6055L640.026 100.16C619.319 107.259 580.027 124.224 567.48 142.589L564.096 141.015Z" fill="black"/>
<path id="Vector_14" d="M611.467 249.733C617.619 248.443 618.871 254.559 620.291 258.985L613.969 271.256C617.187 272.196 620.542 272.755 622.082 276.105L621.197 276.945C618.645 277.018 615.756 275.003 613.433 273.685C611.066 276.362 607.733 280.901 604.317 281.352C602.176 280.308 602.883 280.971 601.713 278.762C604.749 274.19 605.989 273.629 611.182 271.653C612.754 266.937 618.307 257.809 615.627 253.44C610.442 250.693 604.586 258.033 599.743 258.503L599.178 257.721C601.263 253.207 607.389 252.878 611.467 249.733Z" fill="black"/>
<g id="question">
<animateTransform attributeName="transform" type="rotate" values="0 1045 190;5 1045 190;0 1045 190;-5 1045 190;0 1045 190" dur="2.5s" repeatCount="indefinite" calcMode="spline" keySplines="0.45 0.05 0.55 0.95;0.45 0.05 0.55 0.95;0.45 0.05 0.55 0.95;0.45 0.05 0.55 0.95"/>
<path id="Vector_15" d="M1036.88 134.236C1064.51 130.587 1079.07 164.306 1057.17 181.135C1050.61 186.18 1047.5 186.757 1042.84 193.955C1039.36 199.339 1040.94 216.033 1039.8 217.837L1038.45 218.051C1035.98 217.257 1034.87 215.954 1032.97 214.178C1031.9 203.718 1032.26 194.948 1039.16 186.168C1051.56 173.138 1058.64 172.449 1054.9 151.699C1043.76 137.344 1027.89 142.476 1020.27 157.371C1021.48 160.998 1023.76 165.275 1019.58 167.463C1013.99 166.452 1012.59 161.08 1011.02 156.427C1014.09 141.595 1022.68 136.951 1036.88 134.236Z" fill="black"/>
<path id="Vector_16" d="M1037.89 231.844C1050.76 233.053 1045.91 245.052 1037.25 249.01C1026.4 245.241 1027.9 235.098 1037.89 231.844Z" fill="black"/>
</g>
<path id="sweat1" d="M991.196 269.928C999.316 275.287 985.786 295.547 993.444 302.117L994.888 301.325C996.504 296.152 994.297 287.739 995.142 283.993L996.009 283.595L995.968 284.287L996.772 284.524L997.033 286.172C999.157 292.512 1000.66 301.97 994.042 306.239C984.548 307.081 989.773 284.501 990.742 279.793C991.361 276.806 989.257 272.918 991.196 269.928Z" fill="black"><animateTransform attributeName="transform" type="translate" values="0 0;0 12;0 16;0 0" dur="3s" begin="0s" repeatCount="indefinite" keyTimes="0;0.6;0.8;1" calcMode="spline" keySplines="0.45 0.05 0.55 0.95;0.45 0.05 0.55 0.95;0.45 0.05 0.55 0.95"/><animate attributeName="opacity" values="1;0.7;0;1" dur="3s" begin="0s" repeatCount="indefinite" keyTimes="0;0.6;0.8;1"/></path>
<path id="Vector_17" d="M593.977 149.97C612.918 149.572 594.135 175.31 590.183 181.944C593.429 180.002 597.4 177.255 600.621 175.145C597.903 178.665 594.22 182.677 589.566 183.339L588.118 182.206L588.384 183.004C588.314 180.475 588.581 180.834 589.876 178.329C592.959 172.933 608.072 151.077 593.083 152.872C588.766 153.389 582.939 154.34 583.938 159.767L583.004 160.154C580.871 159.155 581.388 159.774 580.524 157.949C582.418 152.52 589.038 151.344 593.977 149.97Z" fill="black"/>
<path id="Vector_18" d="M702.371 207.346C704.495 205.438 704.131 205.15 706.523 204.829C709.638 207.729 708.317 213.044 709.974 218.153C717.771 211.561 725.491 205.091 735.838 210.04L736.23 210.904C732.985 213.091 729.362 210.156 725.759 211.274C721.407 212.624 717.221 217.695 713.556 219.473C708.166 222.089 707.417 218.091 702.261 223.308L701.167 222.579L706.076 217.649C705.884 214.566 705.389 211.225 704.997 208.14L702.371 207.346Z" fill="black"/>
<path id="Vector_19" d="M792.749 259.24C792.921 260.228 792.777 260.562 792.639 261.568C791.216 264.24 788.638 265.8 786.177 267.596C783.736 266.185 780.959 264.781 778.443 263.445C772.379 267.36 763.366 280.42 757.123 276.462C754.827 272.82 755.521 269.335 755.92 265.181C756.443 264.25 756.862 263.857 757.549 263.048C759.591 264.134 757.329 270.171 759.488 274.286C768.295 277.258 771.073 253.07 785.627 264.149L792.749 259.24Z" fill="black"/>
<path id="Vector_20" d="M818.097 200.181L819.534 201.451C818.455 204.729 813.766 206.228 811.051 210.111C808.307 214.02 811.573 216.216 811.972 220.677C812.549 227.112 808.472 231.526 804.842 236.14C807.091 230.606 808.534 227.342 809.703 221.478C807.317 212.299 803.392 213.483 812.054 204.216L811.36 204.188C804.561 203.971 805.832 203.578 799.15 205.928L798.249 205.277L798.112 203.651C802.794 199.155 813.175 203.809 818.097 200.181Z" fill="black"/>
<path id="Vector_21" d="M907.906 298.981C917.737 298.964 914.622 310.436 910.126 315.539C900.797 315.255 901.807 303.733 907.906 298.981Z" fill="black"/>
<path id="Vector_22" d="M956.814 300.863C958.361 301.568 959.819 302.293 960.774 303.766C962.026 305.701 962.479 308.046 962.046 310.308C961.228 314.525 959.97 315.645 956.663 317.929C948.062 314.168 949.692 305.111 956.814 300.863Z" fill="black"/>
<path id="Vector_23" d="M956.271 274.743C961.634 278.565 959.234 288.157 974.153 287.013C975.356 286.921 976.257 287.752 976.917 288.743L976.387 290.818C968.034 290.734 950.551 286.387 956.271 274.743Z" fill="black"/>
<path id="sweat2" d="M1004.71 308.403C1008.45 311.905 1002.58 320.575 1006.21 326.946C1008.47 324.51 1007.05 320.721 1009.17 317.059L1010.11 317.356L1011.09 319.576C1010.96 323.747 1011.1 328.333 1006.99 330.477C999.707 327.646 1002.76 314.017 1004.71 308.403Z" fill="black"><animateTransform attributeName="transform" type="translate" values="0 0;0 12;0 16;0 0" dur="3.5s" begin="0.5s" repeatCount="indefinite" keyTimes="0;0.6;0.8;1" calcMode="spline" keySplines="0.45 0.05 0.55 0.95;0.45 0.05 0.55 0.95;0.45 0.05 0.55 0.95"/><animate attributeName="opacity" values="1;0.7;0;1" dur="3.5s" begin="0.5s" repeatCount="indefinite" keyTimes="0;0.6;0.8;1"/></path>
<path id="Vector_24" d="M539.284 195.087L541.566 193.664C542.113 194.225 542.48 194.514 542.877 195.161C541.333 203.214 541.636 211.553 543.035 219.606L539.866 219.799C537.249 211.974 538.312 203.018 539.284 195.087Z" fill="black"/>
<path id="Vector_25" d="M539.284 195.087C540.953 184.01 542.277 179.955 546.12 169.258L548.096 173.285C545.928 180.139 543.248 188.007 542.877 195.161C542.48 194.514 542.113 194.225 541.566 193.664L539.284 195.087Z" fill="black"/>
<path id="Vector_26" d="M564.096 141.015L567.48 142.589C562.978 148.302 559.549 152.77 555.51 158.896L553.693 154.976C556.818 150.182 560.565 145.542 564.096 141.015Z" fill="black"/>
<path id="Vector_27" d="M916.939 276.312L917.785 277.458C917.998 284.226 905.63 287.29 900.309 287.398C899.834 286.945 899.594 286.34 899.278 285.734C899.999 284.588 911.543 281.837 916.939 276.312Z" fill="black"/>
<path id="Vector_28" d="M553.693 154.976L555.51 158.896C552.438 164.217 550.47 167.663 548.096 173.285L546.12 169.258C548.203 164.276 550.738 159.496 553.693 154.976Z" fill="black"/>
<path id="Vector_29" d="M792.426 145.456L794.516 145.435L794.647 146.476C792.963 147.515 786.858 148.774 783.984 149.761C783.723 150.021 783.159 150.232 782.774 150.412L782.231 149.508L783.056 148.144C785.902 146.225 789.037 145.999 792.426 145.456Z" fill="black"/>
<path id="Vector_30" d="M672.983 207.079L670.532 206.124C669.681 203.661 671.917 199.87 674.526 199.323L675.869 201.129L675.739 204.223L675.246 205.573L672.983 207.079Z" fill="black"/>
<path id="left-arm1" fill-rule="evenodd" clip-rule="evenodd" d="M370.673 492.361C381.922 457.55 406.026 416.456 428.406 389.471L428.701 383.465C401.899 415.001 380.949 451.183 366.357 489.87C366.024 490.752 364.851 492.771 363.28 495.475C356.363 507.383 341.731 532.569 357.177 532.43C361.568 530.803 363.013 527.073 364.493 523.253C365.42 520.862 366.361 518.435 368.046 516.466C369.173 517.098 369.49 517.814 369.828 518.576C370.219 519.458 370.638 520.404 372.372 521.356C377.858 518.18 375.045 509.624 372.663 502.38C371.271 498.146 370.027 494.361 370.673 492.361ZM360.264 523.209C361.925 518.991 363.913 513.942 367.316 511.926C369.114 512.049 369.213 512.14 370.123 512.98C370.402 513.237 370.758 513.565 371.262 513.987C372.536 511.483 370.426 502.232 368.288 500.383C366.124 503.264 364.431 503.566 363.481 503.736C363.125 503.799 362.873 503.844 362.74 503.999C359.187 508.143 353.491 523.11 356.531 527.757L357.747 527.643L359.329 525.538C359.634 524.811 359.943 524.026 360.264 523.209Z" fill="black"><animateTransform attributeName="transform" type="rotate" values="0 428 384;10 428 384;0 428 384" dur="2.56s" begin="0.3s" repeatCount="indefinite" calcMode="spline" keySplines="0.45 0.05 0.55 0.95;0.45 0.05 0.55 0.95"/></path>
</g>
</svg>
